<svg id="Layer_1" data-name="Layer 1" xmlns="http://www.w3.org/2000/svg" viewBox="0 0 32 32">
  <title>TOPS</title>
  <path d="M18.92,13h-.7v3.18h.65a1.4,1.4,0,0,0,1.55-1.55C20.42,13.43,19.92,13,18.92,13Z"/>
  <path d="M12.89,12.86c-1.22,0-2.18.87-2.18,3.12s1,3.12,2.13,3.12S15,18.32,15,16,14.11,12.86,12.89,12.86Z"/>
  <path
    d="M16,0A16,16,0,1,0,32,16,16,16,0,0,0,16,0ZM9.38,13H7v6.4H6V13H3.55v-.44H9.38Zm3.47,6.54c-2.54,0-3.19-1.74-3.19-3.56s.68-3.56,3.2-3.56,3.2,1.73,3.2,3.56S15.35,19.54,12.85,19.54ZM19,16.62h-.77V19.4h-1V12.56h1.64c2,0,2.64.73,2.64,2.07C21.47,15.72,20.72,16.62,19,16.62Zm5.19,2.92A3.42,3.42,0,0,1,22,18.9v-.68a3.14,3.14,0,0,0,2.19.88,1.4,1.4,0,0,0,1.52-1.24c0-.6-.32-1-1.62-1.62-1-.53-1.9-1.06-1.9-2.17s1.12-1.65,2.18-1.65a3.21,3.21,0,0,1,2.09.63v.63a3,3,0,0,0-2.05-.82c-.54,0-1.3.25-1.3.89s.47.91,1.77,1.6c1.05.56,1.82,1.06,1.82,2.25C26.69,18.6,25.74,19.54,24.18,19.54Z"/>
</svg>
